<?xml version="1.0" encoding="UTF-8"?>
<!-- Generator: Adobe Illustrator 12.0.0, SVG Export Plug-In . SVG Version: 6.00 Build 51448)  -->
<!DOCTYPE svg PUBLIC "-//W3C//DTD SVG 1.1//EN" "http://www.w3.org/Graphics/SVG/1.1/DTD/svg11.dtd">
<svg version="1.1" id="Layer_1" xmlns="http://www.w3.org/2000/svg" xmlns:xlink="http://www.w3.org/1999/xlink" width="182.03" height="50.617" viewBox="0 0 182.03 50.617" overflow="visible" enable-background="new 0 0 182.03 50.617" xml:space="preserve">
<g>
	<path fill-rule="evenodd" clip-rule="evenodd" fill="#ED1C24" d="M44.857,41.74l-16.16-16.449L45.292,9.13   c0.58,0.87,1.232,1.74,1.884,2.682c0.435,0.797,0.87,1.594,1.377,2.464c0,0.145,0,0.29,0,0.435L37.9,25.508l10.435,10.727   c0,0.072,0,0.145,0.073,0.289c-0.29,0.58-0.58,1.158-0.942,1.811c-0.652,0.871-1.304,1.813-1.956,2.754   C45.292,41.307,45.075,41.523,44.857,41.74L44.857,41.74z M5.87,41.379c-0.58-0.797-1.232-1.668-1.884-2.537   c-0.29-0.508-0.652-1.086-1.015-1.666c-0.145-0.363-0.29-0.725-0.507-1.16l10.58-10.899L2.536,14.204   c0.29-0.58,0.58-1.232,0.942-1.884c0.652-0.942,1.304-1.885,1.956-2.899C5.652,9.203,5.87,8.986,6.087,8.769L22.32,25.291   L5.942,41.451C5.942,41.451,5.942,41.451,5.87,41.379L5.87,41.379z M49.277,34.205l-8.551-8.842l8.624-8.624   c0.072,0,0.145,0,0.217,0c0.29,1.087,0.58,2.174,0.942,3.333c0.145,1.015,0.29,2.102,0.435,3.188c0,1.015,0,2.102,0.072,3.189   c-0.145,1.303-0.29,2.607-0.507,3.984c-0.29,1.16-0.58,2.318-0.942,3.479c-0.072,0.072-0.145,0.219-0.217,0.363   C49.35,34.277,49.35,34.277,49.277,34.205L49.277,34.205z M1.449,33.697C0.594,30.49,0,27.906,0,24.566   c0.253-2.536,0.457-4.787,1.159-7.247c0.073-0.29,0.217-0.58,0.362-0.942c0,0,0.072,0,0.145-0.073l8.624,8.914L1.521,33.77   C1.521,33.77,1.521,33.77,1.449,33.697L1.449,33.697z M15.073,2.536C15,2.464,14.928,2.319,14.855,2.174c0,0,0-0.072,0.073-0.145   c2.26-0.822,4.254-1.413,6.594-2.029c1.232,1.232,2.536,2.536,3.841,3.841c0.072,0,0.145,0,0.29,0.072   c1.304-1.232,2.608-2.464,3.913-3.769c0.363,0,0.725,0.073,1.087,0.146c1.087,0.29,2.247,0.652,3.406,1.014   c0.725,0.29,1.45,0.58,2.247,0.942c0,0,0,0.072,0.073,0.145L25.726,12.899L15.073,2.536L15.073,2.536z M25.436,25.309L7.681,7.029   c0.652-0.652,1.377-1.305,2.102-1.957c0.218-0.145,0.435-0.29,0.725-0.435c0.073-0.072,0.145-0.145,0.218-0.29   c0.507-0.29,1.014-0.58,1.521-0.942c0.145-0.073,0.362-0.145,0.58-0.217l12.464,12.682c0.145,0,0.29,0,0.435-0.073L38.335,3.479   c0.145,0,0.29,0.071,0.507,0.144c0.87,0.652,1.739,1.305,2.682,1.957c0.29,0.29,0.58,0.58,0.942,0.87c0.072,0,0.145,0,0.218,0.072   c0.217,0.29,0.507,0.579,0.797,0.87c-0.073,0-0.146,0.072-0.291,0.145c0,0.073,0,0.145-0.072,0.218L25.436,25.309L25.436,25.309z    M14.855,48.443c0,0,0,0.072,0.073,0.145c1.969,1.041,3.925,1.662,6.594,2.029l4.05-4.021l3.994,3.877   c0.363,0,0.725-0.072,1.087-0.145c1.087-0.291,2.247-0.652,3.406-1.016c0.725-0.289,1.45-0.578,2.247-0.941   c0,0,0-0.072,0.073-0.145L25.726,37.719L14.855,48.443L14.855,48.443z M25.436,25.309L7.681,43.588   c1.565,1.564,2.858,2.404,4.565,3.623c0.145,0.074,0.362,0.146,0.58,0.219l12.464-12.684c0.145,0,0.29,0,0.435,0.074l12.609,12.318   c0.145,0,0.29-0.072,0.507-0.145c0.87-0.652,1.739-1.305,2.682-1.957c0.29-0.289,0.58-0.578,0.942-0.869   c0.072,0,0.145,0,0.218-0.072c0.217-0.291,0.507-0.58,0.797-0.869c-0.073,0-0.146-0.072-0.291-0.145c0-0.072,0-0.146-0.072-0.219   L25.436,25.309L25.436,25.309z M70.236,24.473h2.441c1.584,0,2.647-0.176,3.181-0.529c0.538-0.353,0.807-0.979,0.807-1.878   c0-0.908-0.26-1.542-0.773-1.895c-0.512-0.353-1.588-0.534-3.214-0.534h-2.441V24.473L70.236,24.473z M62.64,37.502V13.838h9.731   c2.151,0,3.861,0.126,5.117,0.378s2.311,0.659,3.155,1.214c1.092,0.74,1.908,1.656,2.441,2.749c0.538,1.092,0.807,2.39,0.807,3.886   c0,2.643-0.782,4.673-2.345,6.075c-1.563,1.408-3.824,2.113-6.765,2.113h-4.546v7.248H62.64L62.64,37.502z M94.509,31.51h2.038   c1.895,0,3.214-0.424,3.945-1.268c0.731-0.846,1.101-2.361,1.101-4.547c0-2.13-0.378-3.643-1.126-4.529   c-0.748-0.891-2.025-1.336-3.823-1.336h-2.135V31.51L94.509,31.51z M86.913,37.502V13.838h9.185c2.332,0,4.072,0.105,5.21,0.315   c1.144,0.21,2.14,0.559,2.983,1.038c1.639,0.962,2.87,2.319,3.693,4.063c0.824,1.744,1.24,3.895,1.24,6.441   c0,2.678-0.514,4.934-1.534,6.756c-1.025,1.824-2.534,3.186-4.525,4.072c-0.769,0.354-1.739,0.605-2.898,0.752   c-1.16,0.15-3.025,0.227-5.58,0.227H86.913L86.913,37.502z M110.513,13.838h7.773l3.983,15.281l4.273-15.281h7.47l-7.966,23.664   h-7.567L110.513,13.838L110.513,13.838z M135.463,30.129h7.391c0.202,0.857,0.571,1.479,1.104,1.848   c0.534,0.375,1.332,0.563,2.392,0.563c0.891,0,1.592-0.154,2.096-0.457c0.509-0.303,0.765-0.727,0.765-1.26   c0-0.857-1.066-1.555-3.197-2.09c-0.428-0.104-0.756-0.189-0.979-0.242c-1.744-0.445-3.135-0.857-4.168-1.227   c-1.034-0.371-1.786-0.719-2.257-1.039c-0.907-0.651-1.592-1.437-2.046-2.344s-0.685-1.95-0.685-3.113   c0-2.345,0.882-4.193,2.646-5.53c1.766-1.336,4.202-2.008,7.294-2.008c3.043,0,5.438,0.643,7.181,1.92   c1.744,1.277,2.731,3.113,2.958,5.5h-7.214c-0.117-0.694-0.429-1.215-0.924-1.555c-0.496-0.345-1.211-0.517-2.127-0.517   c-0.814,0-1.42,0.134-1.814,0.403c-0.396,0.27-0.593,0.677-0.593,1.223c0,0.782,1.038,1.437,3.113,1.958   c0.181,0.051,0.323,0.092,0.416,0.114c0.299,0.071,0.757,0.185,1.365,0.336c2.753,0.698,4.555,1.332,5.399,1.895   c1.047,0.697,1.815,1.491,2.294,2.378c0.483,0.891,0.728,1.941,0.728,3.15c0,2.613-0.916,4.623-2.74,6.021   c-1.823,1.404-4.445,2.105-7.849,2.105c-3.134,0-5.626-0.701-7.457-2.102C136.719,34.658,135.686,32.678,135.463,30.129   L135.463,30.129z M167.458,29.406h4.77l-2.361-8.194L167.458,29.406L167.458,29.406z M157.69,37.502l8.323-23.664h7.693   l8.323,23.664h-7.537l-0.882-3.135h-7.534l-0.916,3.135H157.69L157.69,37.502z"/>
</g>
</svg>